<?xml version="1.0" encoding="UTF-8" standalone="no"?>
<!DOCTYPE svg PUBLIC "-//W3C//DTD SVG 1.1//EN"
 "http://www.w3.org/Graphics/SVG/1.1/DTD/svg11.dtd">
<!-- Generated by graphviz version 2.43.0 (0)
 -->
<!-- Title: /home/runner/work/incubator&#45;opendal/incubator&#45;opendal/bindings/cpp/include/opendal_async.hpp Pages: 1 -->
<svg width="369pt" height="170pt"
 viewBox="0.00 0.00 369.00 170.00" xmlns="http://www.w3.org/2000/svg" xmlns:xlink="http://www.w3.org/1999/xlink">
<g id="graph0" class="graph" transform="scale(1 1) rotate(0) translate(4 166)">
<title>/home/runner/work/incubator&#45;opendal/incubator&#45;opendal/bindings/cpp/include/opendal_async.hpp</title>
<!-- Node1 -->
<g id="Node000001" class="node">
<title>Node1</title>
<g id="a_Node000001"><a xlink:title=" ">
<polygon fill="#999999" stroke="#666666" points="209.5,-162 48.5,-162 48.5,-110 209.5,-110 209.5,-162"/>
<text text-anchor="start" x="56.5" y="-150" font-family="Helvetica,sans-Serif" font-size="10.00">/home/runner/work/incubator</text>
<text text-anchor="start" x="56.5" y="-139" font-family="Helvetica,sans-Serif" font-size="10.00">&#45;opendal/incubator&#45;opendal</text>
<text text-anchor="start" x="56.5" y="-128" font-family="Helvetica,sans-Serif" font-size="10.00">/bindings/cpp/include/opendal</text>
<text text-anchor="middle" x="129" y="-117" font-family="Helvetica,sans-Serif" font-size="10.00">_async.hpp</text>
</a>
</g>
</g>
<!-- Node2 -->
<g id="Node000002" class="node">
<title>Node2</title>
<g id="a_Node000002"><a xlink:title=" ">
<polygon fill="#e0e0e0" stroke="#999999" points="56,-74 0,-74 0,-55 56,-55 56,-74"/>
<text text-anchor="middle" x="28" y="-62" font-family="Helvetica,sans-Serif" font-size="10.00">optional</text>
</a>
</g>
</g>
<!-- Node1&#45;&gt;Node2 -->
<g id="edge1_Node000001_Node000002" class="edge">
<title>Node1&#45;&gt;Node2</title>
<g id="a_edge1_Node000001_Node000002"><a xlink:title=" ">
<path fill="none" stroke="#63b8ff" d="M92.54,-109.91C77.99,-99.9 61.75,-88.72 49.2,-80.09"/>
<polygon fill="#63b8ff" stroke="#63b8ff" points="51.01,-77.09 40.79,-74.3 47.05,-82.85 51.01,-77.09"/>
</a>
</g>
</g>
<!-- Node3 -->
<g id="Node000003" class="node">
<title>Node3</title>
<g id="a_Node000003"><a xlink:title=" ">
<polygon fill="#e0e0e0" stroke="#999999" points="114,-74 74,-74 74,-55 114,-55 114,-74"/>
<text text-anchor="middle" x="94" y="-62" font-family="Helvetica,sans-Serif" font-size="10.00">span</text>
</a>
</g>
</g>
<!-- Node1&#45;&gt;Node3 -->
<g id="edge2_Node000001_Node000003" class="edge">
<title>Node1&#45;&gt;Node3</title>
<g id="a_edge2_Node000001_Node000003"><a xlink:title=" ">
<path fill="none" stroke="#63b8ff" d="M116.36,-109.91C111.96,-101.16 107.11,-91.52 103.05,-83.47"/>
<polygon fill="#63b8ff" stroke="#63b8ff" points="106.06,-81.66 98.43,-74.3 99.8,-84.81 106.06,-81.66"/>
</a>
</g>
</g>
<!-- Node4 -->
<g id="Node000004" class="node">
<title>Node4</title>
<g id="a_Node000004"><a xlink:title=" ">
<polygon fill="#e0e0e0" stroke="#999999" points="198,-74 132,-74 132,-55 198,-55 198,-74"/>
<text text-anchor="middle" x="165" y="-62" font-family="Helvetica,sans-Serif" font-size="10.00">async.rs.h</text>
</a>
</g>
</g>
<!-- Node1&#45;&gt;Node4 -->
<g id="edge3_Node000001_Node000004" class="edge">
<title>Node1&#45;&gt;Node4</title>
<g id="a_edge3_Node000001_Node000004"><a xlink:title=" ">
<path fill="none" stroke="#63b8ff" d="M142,-109.91C146.58,-101.06 151.63,-91.31 155.83,-83.2"/>
<polygon fill="#63b8ff" stroke="#63b8ff" points="158.95,-84.79 160.44,-74.3 152.73,-81.57 158.95,-84.79"/>
</a>
</g>
</g>
<!-- Node5 -->
<g id="Node000005" class="node">
<title>Node5</title>
<g id="a_Node000005"><a xlink:href="async__defs_8hpp.html" target="_top" xlink:title=" ">
<polygon fill="white" stroke="#666666" points="308,-74 216,-74 216,-55 308,-55 308,-74"/>
<text text-anchor="middle" x="262" y="-62" font-family="Helvetica,sans-Serif" font-size="10.00">async_defs.hpp</text>
</a>
</g>
</g>
<!-- Node1&#45;&gt;Node5 -->
<g id="edge4_Node000001_Node000005" class="edge">
<title>Node1&#45;&gt;Node5</title>
<g id="a_edge4_Node000001_Node000005"><a xlink:title=" ">
<path fill="none" stroke="#63b8ff" d="M177.02,-109.91C197.04,-99.44 219.5,-87.71 236.3,-78.93"/>
<polygon fill="#63b8ff" stroke="#63b8ff" points="238.23,-81.87 245.47,-74.14 234.99,-75.66 238.23,-81.87"/>
</a>
</g>
</g>
<!-- Node6 -->
<g id="Node000006" class="node">
<title>Node6</title>
<g id="a_Node000006"><a xlink:title=" ">
<polygon fill="#e0e0e0" stroke="#999999" points="244.5,-19 179.5,-19 179.5,0 244.5,0 244.5,-19"/>
<text text-anchor="middle" x="212" y="-7" font-family="Helvetica,sans-Serif" font-size="10.00">rust/cxx.h</text>
</a>
</g>
</g>
<!-- Node5&#45;&gt;Node6 -->
<g id="edge5_Node000005_Node000006" class="edge">
<title>Node5&#45;&gt;Node6</title>
<g id="a_edge5_Node000005_Node000006"><a xlink:title=" ">
<path fill="none" stroke="#63b8ff" d="M253.74,-54.75C246.54,-47.11 235.89,-35.82 227.15,-26.56"/>
<polygon fill="#63b8ff" stroke="#63b8ff" points="229.51,-23.96 220.1,-19.09 224.42,-28.76 229.51,-23.96"/>
</a>
</g>
</g>
<!-- Node7 -->
<g id="Node000007" class="node">
<title>Node7</title>
<g id="a_Node000007"><a xlink:title=" ">
<polygon fill="#e0e0e0" stroke="#999999" points="361,-19 263,-19 263,0 361,0 361,-19"/>
<text text-anchor="middle" x="312" y="-7" font-family="Helvetica,sans-Serif" font-size="10.00">rust/cxx_async.h</text>
</a>
</g>
</g>
<!-- Node5&#45;&gt;Node7 -->
<g id="edge6_Node000005_Node000007" class="edge">
<title>Node5&#45;&gt;Node7</title>
<g id="a_edge6_Node000005_Node000007"><a xlink:title=" ">
<path fill="none" stroke="#63b8ff" d="M270.26,-54.75C277.46,-47.11 288.11,-35.82 296.85,-26.56"/>
<polygon fill="#63b8ff" stroke="#63b8ff" points="299.58,-28.76 303.9,-19.09 294.49,-23.96 299.58,-28.76"/>
</a>
</g>
</g>
</g>
</svg>
